# xmcd
# 
# Track frame offsets:
#     150
#     40968
#     149838
# 
# Disc length: 4570
# 
# Revision: 0
# Processed by: cddbd v1.5.2PL0 Copyright (c) Steve Scherf et al.
# Submitted via: BonkEnc v1.0.15
# 
DISCID=2b11d803
DTITLE=David Dewulf - Mindfulness
DYEAR=0
DGENRE=
TTITLE0=De Adem
TTITLE1=Bodyscan Kort
TTITLE2=Bodyscan Lang
EXTD=
EXTT0=
EXTT1=
EXTT2=
PLAYORDER=
